<svg width="20" height="20" viewBox="0 0 20 20" fill="none" xmlns="http://www.w3.org/2000/svg">
<path d="M6.0331 12.966L6.03308 12.9661L6.03927 12.9695C6.9447 13.4761 8.02555 13.3295 9.02437 12.7284C9.02444 12.7283 9.02451 12.7283 9.02458 12.7283L9.99885 12.1437L10.9766 12.7289L10.977 12.7291C11.6474 13.1295 12.2518 13.2749 12.7667 13.2749C13.3036 13.2749 13.723 13.1098 13.9853 12.9567L13.7334 12.5249L13.9844 12.9573C14.8573 12.4508 15.2917 11.4625 15.2917 10.3499V2.94986C15.2917 2.69239 15.5621 2.54554 15.7542 2.64012L15.7565 2.6412C17.0551 3.27256 17.8334 4.57887 17.8334 6.50819V13.4915C17.8334 15.8904 15.8906 17.8332 13.4917 17.8332H6.50841C4.10956 17.8332 2.16675 15.8904 2.16675 13.4915V6.50819C2.16675 4.579 2.94499 3.27275 4.24342 2.64133C4.44509 2.54374 4.70841 2.69243 4.70841 2.94986V10.3499C4.70841 11.4651 5.14462 12.4522 6.0331 12.966Z" fill="#285FE9" stroke="#285FE9"/>
<path d="M12.8588 11.0082L12.8588 11.0082L12.8547 11.0105C12.8478 11.0146 12.7961 11.0401 12.6606 11.0159C12.5266 10.992 12.3466 10.9248 12.1322 10.7961L12.1317 10.7958L11.0346 10.1392C11.0341 10.1389 11.0336 10.1386 11.033 10.1383C10.7241 9.95099 10.3478 9.87276 9.99992 9.87276C9.65203 9.87276 9.27577 9.95099 8.96682 10.1383C8.96628 10.1386 8.96575 10.1389 8.96521 10.1392L7.86815 10.7958L7.86767 10.7961C7.65547 10.9234 7.47612 10.9891 7.34164 11.0124C7.21406 11.0345 7.15515 11.0146 7.1384 11.0065C7.09922 10.9805 6.95825 10.8197 6.95825 10.3498V2.49984C6.95825 2.31765 7.10939 2.1665 7.29159 2.1665H12.7083C12.8904 2.1665 13.0416 2.31765 13.0416 2.49984V10.3498C13.0416 10.8311 12.8937 10.9881 12.8588 11.0082Z" fill="#285FE9" stroke="#285FE9"/>
</svg>
