<svg width="20" height="20" viewBox="0 0 20 20" fill="none" xmlns="http://www.w3.org/2000/svg">
<path d="M13.0249 3.22836L13.0249 3.22836V3.23317V4.0165C13.0249 4.60703 12.5487 5.08317 11.9582 5.08317H8.03322C7.4427 5.08317 6.96655 4.60703 6.96655 4.0165V3.23317C6.96655 2.64609 7.44757 2.1665 8.04155 2.1665H11.9582C12.5532 2.1665 13.0305 2.64598 13.0249 3.22836Z" fill="#285FE9" stroke="#285FE9"/>
<path d="M11.9584 6.92523C13.5595 6.92523 14.8667 5.61804 14.8667 4.01689C14.8667 3.97426 14.8859 3.94218 14.9223 3.92078C14.9594 3.89893 15.0051 3.89469 15.0512 3.91809C16.0673 4.4598 16.7584 5.53426 16.7584 6.76689V14.6086C16.7584 16.3824 15.3072 17.8336 13.5334 17.8336H6.4667C4.69284 17.8336 3.2417 16.3824 3.2417 14.6086V6.76689C3.2417 5.53426 3.93274 4.4598 4.94883 3.91809C4.99493 3.89469 5.04063 3.89893 5.07777 3.92078C5.11416 3.94218 5.13337 3.97426 5.13337 4.01689C5.13337 5.61804 6.44056 6.92523 8.0417 6.92523H11.9584ZM6.6667 14.6252H10.3167C10.9345 14.6252 11.4417 14.118 11.4417 13.5002C11.4417 12.8824 10.9345 12.3752 10.3167 12.3752H6.6667C6.04889 12.3752 5.5417 12.8824 5.5417 13.5002C5.5417 14.118 6.04889 14.6252 6.6667 14.6252ZM6.6667 11.2919H12.5C13.1178 11.2919 13.625 10.7847 13.625 10.1669C13.625 9.54908 13.1178 9.04189 12.5 9.04189H6.6667C6.04889 9.04189 5.5417 9.54909 5.5417 10.1669C5.5417 10.7847 6.04889 11.2919 6.6667 11.2919Z" fill="#285FE9" stroke="#285FE9"/>
</svg>
