<svg width="20" height="20" viewBox="0 0 20 20" fill="none" xmlns="http://www.w3.org/2000/svg">
<path d="M6.54089 10.0778L6.54086 10.0777L6.5344 10.0819L5.81461 10.5535C5.46524 10.7679 4.99175 10.5121 4.99175 10.0918V7.3335C4.99175 7.06516 4.91798 6.79171 4.8275 6.56306C4.73589 6.33154 4.61189 6.10769 4.47878 5.93574L4.46445 5.91724L4.44846 5.90015L2.49846 3.81682L2.49281 3.81079L2.48697 3.80494C2.41062 3.7286 2.32522 3.60217 2.25917 3.4554C2.19106 3.30404 2.16675 3.18298 2.16675 3.12516V1.92516C2.16675 1.55278 2.42418 1.3335 2.69175 1.3335H9.46675C9.74943 1.3335 9.99175 1.56839 9.99175 1.87516V3.01683C9.99175 3.13131 9.95343 3.29248 9.87495 3.46547C9.79958 3.63162 9.70561 3.76802 9.62928 3.84705L7.44629 5.81505C7.21702 6.00993 7.05149 6.27614 6.94342 6.53678C6.83308 6.8029 6.76675 7.10117 6.76675 7.3835V9.61683C6.76675 9.6709 6.74438 9.77357 6.68642 9.88659C6.62692 10.0026 6.56437 10.0629 6.54089 10.0778Z" fill="#285FE9" stroke="#285FE9"/>
<path d="M14.1667 1.6665H12.1667C11.9334 1.6665 11.7501 1.84984 11.7501 2.08317C11.7501 2.48317 11.7501 3.0165 11.7501 3.0165C11.7501 3.8415 11.3084 4.64984 10.8751 5.0915L8.60842 7.1165C8.58342 7.17484 8.54175 7.25817 8.51675 7.32484V9.6165C8.51675 10.3748 8.06675 11.1998 7.45008 11.5748L6.76675 12.0165C6.38341 12.2582 5.95842 12.3748 5.53341 12.3748C5.15008 12.3748 4.76675 12.2748 4.41675 12.0832C4.00768 11.8566 3.69367 11.5207 3.49266 11.1258C3.36268 10.8704 3.33341 10.5794 3.33341 10.2928V8.50817C3.33341 8.39984 3.29175 8.2915 3.20841 8.2165L2.37508 7.38317C2.11675 7.1165 1.66675 7.29984 1.66675 7.67484V14.1665C1.66675 16.4665 3.53341 18.3332 5.83342 18.3332H14.1667C16.4667 18.3332 18.3334 16.4665 18.3334 14.1665V5.83317C18.3334 3.53317 16.4667 1.6665 14.1667 1.6665ZM15.0001 14.7915H9.16675C8.82508 14.7915 8.54175 14.5082 8.54175 14.1665C8.54175 13.8248 8.82508 13.5415 9.16675 13.5415H15.0001C15.3417 13.5415 15.6251 13.8248 15.6251 14.1665C15.6251 14.5082 15.3417 14.7915 15.0001 14.7915ZM15.0001 11.4582H10.8334C10.4917 11.4582 10.2084 11.1748 10.2084 10.8332C10.2084 10.4915 10.4917 10.2082 10.8334 10.2082H15.0001C15.3417 10.2082 15.6251 10.4915 15.6251 10.8332C15.6251 11.1748 15.3417 11.4582 15.0001 11.4582Z" fill="#285FE9"/>
</svg>
