<svg width="20" height="20" viewBox="0 0 20 20" fill="none" xmlns="http://www.w3.org/2000/svg">
<path d="M16.0666 14.1408L15.841 14.4815L16.1299 14.7704L16.9103 15.5508C17.0333 15.6791 17.0212 15.8665 16.9272 15.9659C16.8684 16.0235 16.7988 16.0502 16.7168 16.0502C16.6335 16.0502 16.563 16.0226 16.5037 15.9633L15.7203 15.1799L15.4332 14.8928L15.0933 15.1149C14.5439 15.4739 13.9046 15.6835 13.2084 15.6835C11.3179 15.6835 9.78345 14.149 9.78345 12.2585C9.78345 10.368 11.3179 8.8335 13.2084 8.8335C15.099 8.8335 16.6334 10.368 16.6334 12.2585C16.6334 12.9563 16.423 13.6025 16.0666 14.1408Z" fill="#285FE9" stroke="#285FE9"/>
<path d="M16.3166 3.34984V5.19984C16.3166 5.87484 15.8999 6.7165 15.4833 7.1415L15.3333 7.27484C15.2166 7.38317 15.0416 7.40817 14.8916 7.35817C14.7249 7.29984 14.5583 7.25817 14.3916 7.2165C14.0249 7.12484 13.6333 7.08317 13.2333 7.08317C10.3583 7.08317 8.02493 9.4165 8.02493 12.2915C8.02493 13.2415 8.28327 14.1748 8.77493 14.9748C9.1916 15.6748 9.77493 16.2582 10.4083 16.6498C10.5999 16.7748 10.6749 17.0415 10.5083 17.1915C10.4499 17.2415 10.3916 17.2832 10.3333 17.3248L9.1666 18.0832C8.08327 18.7582 6.5916 17.9998 6.5916 16.6498V12.1915C6.5916 11.5998 6.25827 10.8415 5.92493 10.4248L2.7666 7.05817C2.34993 6.63317 2.0166 5.87484 2.0166 5.37484V3.43317C2.0166 2.42484 2.7666 1.6665 3.67493 1.6665H14.6583C15.5666 1.6665 16.3166 2.42484 16.3166 3.34984Z" fill="#285FE9"/>
</svg>
