<svg width="20" height="20" viewBox="0 0 20 20" fill="none" xmlns="http://www.w3.org/2000/svg">
<path d="M9.20786 3.13244L9.20893 3.13386L10.3756 4.68386L10.3763 4.68472C10.3844 4.69544 10.3927 4.7066 10.4013 4.7181C10.5027 4.85348 10.6409 5.03792 10.8455 5.14552C11.0732 5.26525 11.3291 5.2665 11.5501 5.2665H13.8751C15.134 5.2665 16.2563 5.85633 16.9795 6.77805C17.0246 6.83551 17.0347 6.88032 17.0358 6.91069C17.037 6.9438 17.0281 6.98412 17.0006 7.0281C16.9437 7.11916 16.8155 7.20817 16.6366 7.20817H2.66675C2.39061 7.20817 2.16675 6.98431 2.16675 6.70817V5.34984C2.16675 3.59265 3.59289 2.1665 5.35008 2.1665H7.28342C7.90971 2.1665 8.25851 2.26848 8.49974 2.40957C8.74881 2.55523 8.93921 2.77285 9.20786 3.13244Z" fill="#285FE9" stroke="#285FE9"/>
<path d="M17.3201 9.45803C17.5956 9.45802 17.8192 9.68085 17.8201 9.95633L17.8334 13.875C17.8334 13.8752 17.8334 13.8753 17.8334 13.8755C17.8331 16.0575 16.0571 17.8333 13.8751 17.8333H6.12508C3.94289 17.8333 2.16675 16.0572 2.16675 13.875V9.95828C2.16675 9.68214 2.3906 9.45829 2.66674 9.45828L17.3201 9.45803ZM11.1751 12.2083V11.25C11.1751 10.6322 10.6679 10.125 10.0501 10.125C9.4196 10.125 8.92508 10.6365 8.92508 11.25V12.2083H7.91675C7.29894 12.2083 6.79175 12.7155 6.79175 13.3333C6.79175 13.9511 7.29894 14.4583 7.91675 14.4583H8.92508V15.4166C8.92508 16.0301 9.41961 16.5416 10.0501 16.5416C10.6679 16.5416 11.1751 16.0344 11.1751 15.4166V14.4583H12.0834C12.7012 14.4583 13.2084 13.9511 13.2084 13.3333C13.2084 12.7155 12.7012 12.2083 12.0834 12.2083H11.1751Z" fill="#285FE9" stroke="#285FE9"/>
</svg>
