<svg width="20" height="21" viewBox="0 0 20 21" fill="none" xmlns="http://www.w3.org/2000/svg">
<path d="M16.6666 6.29159V14.7083C16.5333 14.6833 16.3916 14.6666 16.25 14.6666C15.1 14.6666 14.1666 15.5999 14.1666 16.7499C14.1666 16.8916 14.1833 17.0333 14.2083 17.1666H5.79165C5.81665 17.0333 5.83331 16.8916 5.83331 16.7499C5.83331 15.5999 4.89998 14.6666 3.74998 14.6666C3.60831 14.6666 3.46665 14.6833 3.33331 14.7083V6.29159C3.46665 6.31659 3.60831 6.33325 3.74998 6.33325C4.89998 6.33325 5.83331 5.39992 5.83331 4.24992C5.83331 4.10825 5.81665 3.96659 5.79165 3.83325H14.2083C14.1833 3.96659 14.1666 4.10825 14.1666 4.24992C14.1666 5.39992 15.1 6.33325 16.25 6.33325C16.3916 6.33325 16.5333 6.31659 16.6666 6.29159Z" stroke="#285FE9" stroke-width="1.5" stroke-linecap="round" stroke-linejoin="round"/>
<path d="M5.83335 4.25008C5.83335 5.40008 4.90002 6.33341 3.75002 6.33341C3.60835 6.33341 3.46669 6.31675 3.33335 6.29175C2.38335 6.10008 1.66669 5.25841 1.66669 4.25008C1.66669 3.10008 2.60002 2.16675 3.75002 2.16675C4.75835 2.16675 5.60002 2.88341 5.79169 3.83341C5.81669 3.96675 5.83335 4.10841 5.83335 4.25008Z" stroke="#285FE9" stroke-width="1.5" stroke-linecap="round" stroke-linejoin="round"/>
<path d="M18.3334 4.25008C18.3334 5.25841 17.6167 6.10008 16.6667 6.29175C16.5334 6.31675 16.3917 6.33341 16.25 6.33341C15.1 6.33341 14.1667 5.40008 14.1667 4.25008C14.1667 4.10841 14.1834 3.96675 14.2084 3.83341C14.4 2.88341 15.2417 2.16675 16.25 2.16675C17.4 2.16675 18.3334 3.10008 18.3334 4.25008Z" stroke="#285FE9" stroke-width="1.5" stroke-linecap="round" stroke-linejoin="round"/>
<path d="M5.83335 16.7501C5.83335 16.8917 5.81669 17.0334 5.79169 17.1667C5.60002 18.1167 4.75835 18.8334 3.75002 18.8334C2.60002 18.8334 1.66669 17.9001 1.66669 16.7501C1.66669 15.7417 2.38335 14.9001 3.33335 14.7084C3.46669 14.6834 3.60835 14.6667 3.75002 14.6667C4.90002 14.6667 5.83335 15.6001 5.83335 16.7501Z" stroke="#285FE9" stroke-width="1.5" stroke-linecap="round" stroke-linejoin="round"/>
<path d="M18.3334 16.7501C18.3334 17.9001 17.4 18.8334 16.25 18.8334C15.2417 18.8334 14.4 18.1167 14.2084 17.1667C14.1834 17.0334 14.1667 16.8917 14.1667 16.7501C14.1667 15.6001 15.1 14.6667 16.25 14.6667C16.3917 14.6667 16.5334 14.6834 16.6667 14.7084C17.6167 14.9001 18.3334 15.7417 18.3334 16.7501Z" stroke="#285FE9" stroke-width="1.5" stroke-linecap="round" stroke-linejoin="round"/>
</svg>
