<svg width="24" height="24" viewBox="0 0 24 24" fill="none" xmlns="http://www.w3.org/2000/svg">
<g clip-path="url(#clip0_300_70240)">
<path d="M21.79 20.76L21.07 20.04C21.44 19.48 21.66 18.8 21.66 18.08C21.66 16.1 20.06 14.5 18.08 14.5C16.1 14.5 14.5 16.1 14.5 18.08C14.5 20.06 16.1 21.66 18.08 21.66C18.81 21.66 19.48 21.44 20.04 21.07L20.76 21.79C20.9 21.93 21.09 22 21.27 22C21.46 22 21.64 21.93 21.78 21.79C22.07 21.5 22.07 21.04 21.79 20.76Z" fill="#292D32"/>
<path d="M2.03001 14.6309C2.03001 14.6609 2.01001 14.7009 2.01001 14.7309C2.93001 16.5709 4.43001 18.0809 6.27001 18.9909C6.30001 18.9909 6.34001 18.9709 6.37001 18.9709C6.03001 17.8109 5.77001 16.6209 5.58001 15.4309C4.38001 15.2309 3.19001 14.9709 2.03001 14.6309Z" fill="#292D32"/>
<path d="M19.07 6.42945C18.13 4.45945 16.54 2.86945 14.58 1.93945C14.94 3.12945 15.24 4.34945 15.44 5.56945C16.66 5.76945 17.88 6.05945 19.07 6.42945Z" fill="#292D32"/>
<path d="M1.93005 6.42953C3.13005 6.06953 4.35005 5.76953 5.57005 5.56953C5.77005 4.37953 6.02005 3.19953 6.36005 2.03953C6.33005 2.03953 6.29005 2.01953 6.26005 2.01953C4.38005 2.94953 2.85005 4.51953 1.93005 6.42953Z" fill="#292D32"/>
<path d="M13.8201 5.36C13.5801 4.06 13.2801 2.76 12.8501 1.5C12.8301 1.43 12.8301 1.37 12.8201 1.29C12.0801 1.11 11.3001 1 10.5001 1C9.69005 1 8.92005 1.11 8.17005 1.3C8.16005 1.37 8.17005 1.43 8.15005 1.51C7.73005 2.77 7.42005 4.06 7.18005 5.36C9.39005 5.12 11.6101 5.12 13.8201 5.36Z" fill="#292D32"/>
<path d="M5.36 7.17969C4.05 7.41969 2.77 7.72969 1.5 8.14969C1.43 8.16969 1.37 8.16969 1.3 8.17969C1.11 8.91969 1 9.69969 1 10.4997C1 11.3097 1.11 12.0797 1.3 12.8297C1.37 12.8397 1.43 12.8297 1.51 12.8497C2.77 13.2697 4.06 13.5797 5.37 13.8197C5.12 11.6097 5.12 9.38969 5.36 7.17969Z" fill="#292D32"/>
<path d="M19.7 8.17969C19.63 8.17969 19.57 8.16969 19.49 8.14969C18.23 7.72969 16.93 7.41969 15.63 7.17969C15.88 9.38969 15.88 11.6097 15.63 13.8097C16.93 13.5697 18.23 13.2697 19.49 12.8397C19.56 12.8197 19.62 12.8297 19.7 12.8197C19.88 12.0697 20 11.2997 20 10.4897C20 9.69969 19.89 8.92969 19.7 8.17969Z" fill="#292D32"/>
<path d="M7.18005 15.6409C7.42005 16.9509 7.72005 18.2409 8.15005 19.5009C8.17005 19.5709 8.16005 19.6309 8.17005 19.7109C8.92005 19.8909 9.69005 20.0009 10.5001 20.0009C11.3001 20.0009 12.0801 19.8909 12.8201 19.7009C12.8301 19.6309 12.8301 19.5709 12.8501 19.4909C13.2701 18.2309 13.5801 16.9409 13.8201 15.6309C12.7201 15.7509 11.6101 15.8409 10.5001 15.8409C9.39005 15.8409 8.28005 15.7609 7.18005 15.6409Z" fill="#292D32"/>
<path d="M6.94998 6.94961C6.64998 9.30961 6.64998 11.6896 6.94998 14.0596C9.30998 14.3596 11.69 14.3596 14.06 14.0596C14.36 11.6996 14.36 9.31961 14.06 6.94961C11.69 6.64961 9.30998 6.64961 6.94998 6.94961Z" fill="#292D32"/>
</g>
<defs>
<clipPath id="clip0_300_70240">
<rect width="24" height="24" fill="white"/>
</clipPath>
</defs>
</svg>
