<svg width="20" height="20" viewBox="0 0 20 20" fill="none" xmlns="http://www.w3.org/2000/svg">
<path d="M9.59973 4.74135L10.0001 5.27648L10.4004 4.74135C11.1522 3.73656 12.3567 3.0835 13.7001 3.0835C15.9799 3.0835 17.8334 4.94063 17.8334 7.24183C17.8334 8.17912 17.6839 9.04391 17.4243 9.84625L17.4233 9.84951C16.8008 11.8195 15.524 13.4102 14.1419 14.598C12.7576 15.7878 11.2963 16.5484 10.3557 16.8685L10.3557 16.8684L10.3503 16.8703C10.2788 16.8956 10.1518 16.9168 10.0001 16.9168C9.84833 16.9168 9.72133 16.8956 9.64983 16.8703L9.64984 16.8703L9.64447 16.8685C8.70384 16.5484 7.24258 15.7878 5.85827 14.598C4.47616 13.4102 3.19938 11.8195 2.57684 9.84951L2.57686 9.8495L2.5758 9.84625C2.31622 9.04391 2.16675 8.17912 2.16675 7.24183C2.16675 4.94063 4.02022 3.0835 6.30008 3.0835C7.64351 3.0835 8.84799 3.73656 9.59973 4.74135Z" fill="#285FE9" stroke="#285FE9"/>
</svg>
