<svg width="20" height="21" viewBox="0 0 20 21" fill="none" xmlns="http://www.w3.org/2000/svg">
<path d="M10.8417 2.93335L15.7583 5.11668C17.175 5.74168 17.175 6.77502 15.7583 7.40002L10.8417 9.58335C10.2833 9.83335 9.36666 9.83335 8.80833 9.58335L3.89166 7.40002C2.475 6.77502 2.475 5.74168 3.89166 5.11668L8.80833 2.93335C9.36666 2.68335 10.2833 2.68335 10.8417 2.93335Z" stroke="#285FE9" stroke-width="1.5" stroke-linecap="round" stroke-linejoin="round"/>
<path d="M2.5 9.66675C2.5 10.3667 3.025 11.1751 3.66667 11.4584L9.325 13.9751C9.75833 14.1667 10.25 14.1667 10.675 13.9751L16.3333 11.4584C16.975 11.1751 17.5 10.3667 17.5 9.66675" stroke="#285FE9" stroke-width="1.5" stroke-linecap="round" stroke-linejoin="round"/>
<path d="M2.5 13.8333C2.5 14.6083 2.95833 15.3083 3.66667 15.6249L9.325 18.1416C9.75833 18.3333 10.25 18.3333 10.675 18.1416L16.3333 15.6249C17.0417 15.3083 17.5 14.6083 17.5 13.8333" stroke="#285FE9" stroke-width="1.5" stroke-linecap="round" stroke-linejoin="round"/>
</svg>
