<svg width="21" height="20" viewBox="0 0 21 20" fill="none" xmlns="http://www.w3.org/2000/svg">
<g clip-path="url(#clip0_296_55629)">
<path d="M17.0288 7.35942L17.029 7.3604C17.9424 11.3887 15.4844 14.8491 13.1277 17.1234L13.1266 17.1245C12.3484 17.8804 11.3416 18.2582 10.3333 18.2582C9.32557 18.2582 8.31774 17.8807 7.53033 17.1232C5.17395 14.8492 2.71627 11.3808 3.63737 7.35297L3.63752 7.35231C4.44855 3.78378 7.55666 2.1665 10.325 2.1665H10.325H10.3251H10.3251H10.3251H10.3252H10.3252H10.3253H10.3253H10.3254H10.3254H10.3255H10.3255H10.3256H10.3256H10.3257H10.3257H10.3258H10.3258H10.3258H10.3259H10.3259H10.326H10.326H10.3261H10.3261H10.3262H10.3262H10.3262H10.3263H10.3263H10.3264H10.3264H10.3265H10.3265H10.3265H10.3266H10.3266H10.3267H10.3267H10.3268H10.3268H10.3268H10.3269H10.3269H10.327H10.327H10.327H10.3271H10.3271H10.3272H10.3272H10.3272H10.3273H10.3273H10.3274H10.3274H10.3274H10.3275H10.3275H10.3276H10.3276H10.3276H10.3277H10.3277H10.3277H10.3278H10.3278H10.3279H10.3279H10.3279H10.328H10.328H10.328H10.3281H10.3281H10.3281H10.3282H10.3282H10.3282H10.3283H10.3283H10.3284H10.3284H10.3284H10.3285H10.3285H10.3285H10.3286H10.3286H10.3286H10.3287H10.3287H10.3287H10.3288H10.3288H10.3288H10.3288H10.3289H10.3289H10.3289H10.329H10.329H10.329H10.3291H10.3291H10.3291H10.3292H10.3292H10.3292H10.3293H10.3293H10.3293H10.3293H10.3294H10.3294H10.3294H10.3295H10.3295H10.3295H10.3295H10.3296H10.3296H10.3296H10.3297H10.3297H10.3297H10.3297H10.3298H10.3298H10.3298H10.3299H10.3299H10.3299H10.3299H10.33H10.33H10.33H10.33H10.3301H10.3301H10.3301H10.3301H10.3302H10.3302H10.3302H10.3302H10.3303H10.3303H10.3303H10.3303H10.3304H10.3304H10.3304H10.3304H10.3305H10.3305H10.3305H10.3305H10.3306H10.3306H10.3306H10.3306H10.3306H10.3307H10.3307H10.3307H10.3307H10.3308H10.3308H10.3308H10.3308H10.3308H10.3309H10.3309H10.3309H10.3309H10.331H10.331H10.331H10.331H10.331H10.3311H10.3311H10.3311H10.3311H10.3311H10.3312H10.3312H10.3312H10.3312H10.3312H10.3313H10.3313H10.3313H10.3313H10.3313H10.3313H10.3314H10.3314H10.3314H10.3314H10.3314H10.3315H10.3315H10.3315H10.3315H10.3315H10.3315H10.3316H10.3316H10.3316H10.3316H10.3316H10.3316H10.3317H10.3317H10.3317H10.3317H10.3317H10.3317H10.3318H10.3318H10.3318H10.3318H10.3318H10.3318H10.3319H10.3319H10.3319H10.3319H10.3319H10.3319H10.3319H10.332H10.332H10.332H10.332H10.332H10.332H10.332H10.3321H10.3321H10.3321H10.3321H10.3321H10.3321H10.3321H10.3321H10.3322H10.3322H10.3322H10.3322H10.3322H10.3322H10.3322H10.3322H10.3323H10.3323H10.3323H10.3323H10.3323H10.3323H10.3323H10.3323H10.3324H10.3324H10.3324H10.3324H10.3324H10.3324H10.3324H10.3324H10.3324H10.3325H10.3325H10.3325H10.3325H10.3325H10.3325H10.3325H10.3325H10.3325H10.3325H10.3326H10.3326H10.3326H10.3326H10.3326H10.3326H10.3326H10.3326H10.3326H10.3326H10.3326H10.3327H10.3327H10.3327H10.3327H10.3327H10.3327H10.3327H10.3327H10.3327H10.3327H10.3327H10.3327H10.3328H10.3328H10.3328H10.3328H10.3328H10.3328H10.3328H10.3328H10.3328H10.3328H10.3328H10.3328H10.3328H10.3328H10.3329H10.3329H10.3329H10.3329H10.3329H10.3329H10.3329H10.3329H10.3329H10.3329H10.3329H10.3329H10.3329H10.3329H10.3329H10.3329H10.333H10.333H10.333H10.333H10.333H10.333H10.333H10.333H10.333H10.333H10.333H10.333H10.333H10.333H10.333H10.333H10.333H10.333H10.333H10.3331H10.3331H10.3331H10.3331H10.3331H10.3331H10.3331H10.3331H10.3331H10.3331H10.3331H10.3331H10.3331H10.3331H10.3331H10.3331H10.3331H10.3331H10.3331H10.3331H10.3331H10.3331H10.3332H10.3332H10.3332H10.3332H10.3332H10.3332H10.3332H10.3332H10.3332H10.3332H10.3332H10.3332H10.3332H10.3332H10.3332H10.3332H10.3332H10.3332H10.3332H10.3332H10.3333H10.3333H10.3333H10.3333H10.3333H10.3333H10.3333H10.3333H10.3333H10.3333C13.1109 2.1665 16.2257 3.78435 17.0288 7.35942ZM17.5166 7.24984C16.65 3.3915 13.2833 1.6665 10.3333 1.6665H10.325C7.38329 1.6665 4.02495 3.3915 3.14995 7.2415L17.5166 7.24984ZM11.4583 11.4582V10.2915H12.625C13.2428 10.2915 13.75 9.78431 13.75 9.1665C13.75 8.5487 13.2428 8.0415 12.625 8.0415H11.4583V6.87484C11.4583 6.25703 10.9511 5.74984 10.3333 5.74984C9.71548 5.74984 9.20829 6.25703 9.20829 6.87484V8.0415H8.04162C7.42381 8.0415 6.91662 8.5487 6.91662 9.1665C6.91662 9.78431 7.42381 10.2915 8.04162 10.2915H9.20829V11.4582C9.20829 12.076 9.71548 12.5832 10.3333 12.5832C10.9511 12.5832 11.4583 12.076 11.4583 11.4582Z" fill="#285FE9" stroke="#285FE9"/>
</g>
<defs>
<clipPath id="clip0_296_55629">
<rect width="20" height="20" fill="white" transform="translate(0.333252)"/>
</clipPath>
</defs>
</svg>
