<svg width="20" height="20" viewBox="0 0 20 20" fill="none" xmlns="http://www.w3.org/2000/svg">
<g clip-path="url(#clip0_296_55594)">
<path d="M6.11902 14.4861L6.11898 14.486L6.11078 14.4907L4.15244 15.6074L4.15147 15.6079C3.56226 15.9457 3.13829 15.9144 2.89285 15.7718C2.64726 15.6292 2.40845 15.2755 2.40845 14.5917V6.4834C2.40845 6.33067 2.46661 6.12317 2.58648 5.91709C2.70613 5.71139 2.85931 5.55521 2.99818 5.47585L2.99861 5.47561L6.16678 3.66104V14.449C6.16377 14.4526 6.15925 14.4574 6.15285 14.463C6.1438 14.4708 6.13238 14.4788 6.11902 14.4861Z" fill="#285FE9" stroke="#285FE9"/>
<path d="M12 5.51021L12 16.2868L8.625 14.6608L8.625 3.83878L12 5.51021Z" fill="#285FE9" stroke="#285FE9"/>
<path d="M18.3333 5.40855V13.5169C18.3333 14.0419 17.9583 14.6919 17.4916 14.9586L14.7069 16.5545C14.3735 16.7455 13.9583 16.5049 13.9583 16.1207V5.32387C13.9583 5.14436 14.0545 4.97862 14.2104 4.88963L15.8416 3.95855C17.2083 3.17522 18.3333 3.82522 18.3333 5.40855Z" fill="#285FE9"/>
</g>
<defs>
<clipPath id="clip0_296_55594">
<rect width="20" height="20" fill="white"/>
</clipPath>
</defs>
</svg>
