<svg width="20" height="21" viewBox="0 0 20 21" fill="none" xmlns="http://www.w3.org/2000/svg">
<path d="M10 18.9584C5.3345 18.9584 1.54169 15.1656 1.54169 10.5001C1.54169 5.83456 5.3345 2.04175 10 2.04175C14.6655 2.04175 18.4584 5.83456 18.4584 10.5001C18.4584 15.1656 14.6655 18.9584 10 18.9584ZM10 2.29175C5.47388 2.29175 1.79169 5.97394 1.79169 10.5001C1.79169 15.0262 5.47388 18.7084 10 18.7084C14.5262 18.7084 18.2084 15.0262 18.2084 10.5001C18.2084 5.97394 14.5262 2.29175 10 2.29175Z" fill="#292D32" stroke="#285FE9"/>
<path d="M10 10.8334C9.81275 10.8334 9.66669 10.6855 9.66669 10.5001C9.66669 10.3179 9.81783 10.1667 10 10.1667C10.1822 10.1667 10.3334 10.3179 10.3334 10.5001C10.3334 10.6855 10.1873 10.8334 10 10.8334Z" fill="#292D32" stroke="#285FE9"/>
<path d="M13.3333 10.8334C13.1461 10.8334 13 10.6855 13 10.5001C13 10.3179 13.1511 10.1667 13.3333 10.1667C13.5155 10.1667 13.6667 10.3179 13.6667 10.5001C13.6667 10.6855 13.5206 10.8334 13.3333 10.8334Z" fill="#292D32" stroke="#285FE9"/>
<path d="M6.66665 10.8334C6.47938 10.8334 6.33331 10.6855 6.33331 10.5001C6.33331 10.3179 6.48446 10.1667 6.66665 10.1667C6.84884 10.1667 6.99998 10.3179 6.99998 10.5001C6.99998 10.6855 6.85391 10.8334 6.66665 10.8334Z" fill="#292D32" stroke="#285FE9"/>
</svg>
