<svg width="20" height="21" viewBox="0 0 20 21" fill="none" xmlns="http://www.w3.org/2000/svg">
<path d="M14.2916 4.66658L14.2916 16.3333C14.2916 17.2525 14.0404 17.8899 13.6318 18.2984C13.2233 18.707 12.5859 18.9583 11.6666 18.9583L8.33331 18.9583C7.41406 18.9583 6.77667 18.707 6.36812 18.2984C5.95957 17.8899 5.70831 17.2525 5.70831 16.3333L5.70831 4.66658C5.70831 3.74733 5.95957 3.10994 6.36812 2.70139C6.77666 2.29284 7.41406 2.04158 8.33331 2.04158L11.6666 2.04158C12.5859 2.04158 13.2233 2.29284 13.6318 2.70139C14.0404 3.10994 14.2916 3.74733 14.2916 4.66658ZM5.95831 16.3333C5.95831 17.0481 6.1078 17.6773 6.54851 18.1181C6.98922 18.5588 7.61851 18.7083 8.33331 18.7083L11.6666 18.7083C12.3814 18.7083 13.0107 18.5588 13.4515 18.1181C13.8922 17.6773 14.0416 17.0481 14.0416 16.3333L14.0416 4.66658C14.0416 3.95178 13.8922 3.32249 13.4514 2.88178C13.0107 2.44107 12.3814 2.29158 11.6666 2.29158L8.33331 2.29158C7.61851 2.29158 6.98922 2.44107 6.54851 2.88178C6.1078 3.32249 5.95831 3.95179 5.95831 4.66658L5.95831 16.3333Z" fill="#292D32" stroke="#285FE9"/>
<path d="M10.125 5.5C10.125 5.53015 10.1127 5.56143 10.0871 5.58707C10.0614 5.61272 10.0301 5.625 9.99998 5.625L5.83331 5.625C5.80317 5.625 5.77189 5.61272 5.74624 5.58707C5.7206 5.56143 5.70831 5.53015 5.70831 5.5C5.70831 5.46985 5.7206 5.43857 5.74624 5.41293C5.77189 5.38728 5.80317 5.375 5.83331 5.375L9.99998 5.375C10.0301 5.375 10.0614 5.38728 10.0871 5.41293C10.1127 5.43857 10.125 5.46985 10.125 5.5Z" fill="#292D32" stroke="#285FE9"/>
<path d="M9.29165 15.5C9.29165 15.5301 9.27936 15.5614 9.25372 15.5871C9.22807 15.6127 9.19679 15.625 9.16665 15.625L5.83331 15.625C5.80317 15.625 5.77189 15.6127 5.74624 15.5871C5.7206 15.5614 5.70831 15.5301 5.70831 15.5C5.70831 15.4699 5.7206 15.4386 5.74624 15.4129C5.77189 15.3873 5.80317 15.375 5.83331 15.375L9.16665 15.375C9.19679 15.375 9.22807 15.3873 9.25372 15.4129C9.27936 15.4386 9.29165 15.4699 9.29165 15.5Z" fill="#292D32" stroke="#285FE9"/>
<path d="M5.82998 12.2501L5.82998 12.2501L5.82498 12.2501C5.76814 12.2501 5.70831 12.1994 5.70831 12.1251L5.70831 12.1251L5.70831 12.1251L5.70831 12.1251L5.70831 12.1251L5.70831 12.1251L5.70831 12.1251L5.70831 12.1251L5.70831 12.1251L5.70831 12.1251L5.70831 12.1251L5.70831 12.1251L5.70831 12.1251L5.70831 12.1251L5.70831 12.1251L5.70831 12.1251L5.70831 12.1251L5.70831 12.1251L5.70831 12.1251L5.70831 12.1251L5.70831 12.1251L5.70831 12.1251L5.70831 12.1251L5.70831 12.1251L5.70831 12.1251L5.70831 12.1251L5.70831 12.1251L5.70831 12.1251L5.70831 12.1251L5.70831 12.1251L5.70831 12.1251L5.70831 12.1251L5.70831 12.1251L5.70831 12.1251L5.70831 12.1251L5.70831 12.1251L5.70831 12.1251L5.70831 12.1251L5.70831 12.1251L5.70831 12.1251L5.70831 12.1251L5.70831 12.1251L5.70831 12.125L5.70831 12.125L5.70831 12.125L5.70831 12.125L5.70831 12.125L5.70831 12.125L5.70831 12.125L5.70831 12.125L5.70831 12.125L5.70831 12.125L5.70831 12.125L5.70831 12.125L5.70831 12.125L5.70831 12.125L5.70831 12.125L5.70831 12.125L5.70831 12.125L5.70831 12.125L5.70831 12.125L5.70831 12.125L5.70831 12.125L5.70831 12.125L5.70831 12.125L5.70831 12.125L5.70831 12.125L5.70831 12.125L5.70831 12.125L5.70831 12.125L5.70831 12.125L5.70831 12.125L5.70831 12.125L5.70831 12.125L5.70831 12.125L5.70831 12.125L5.70831 12.125L5.70831 12.125L5.70831 12.125L5.70831 12.125L5.70831 12.125L5.70831 12.125L5.70831 12.125L5.70831 12.125L5.70831 12.125L5.70831 12.125L5.70831 12.125L5.70831 12.125L5.70831 12.125L5.70831 12.125L5.70831 12.125L5.70831 12.1249L5.70831 12.1249L5.70831 12.1249L5.70831 12.1249L5.70831 12.1249L5.70831 12.1249L5.70831 12.1249L5.70831 12.1249L5.70831 12.1249L5.70831 12.1249L5.70831 12.1249L5.70831 12.1249L5.70831 12.1249L5.70831 12.1249L5.70831 12.1249L5.70831 12.1249L5.70831 12.1249L5.70831 12.1249L5.70831 12.1249L5.70831 12.1249L5.70831 12.1249L5.70831 12.1249L5.70831 12.1249L5.70831 12.1249L5.70831 12.1249L5.70831 12.1249L5.70831 12.1249L5.70831 12.1248L5.70831 12.1248L5.70831 12.1248L5.70831 12.1248L5.70831 12.1248L5.70831 12.1248L5.70831 12.1248L5.70831 12.1248L5.70831 12.1248L5.70831 12.1248L5.70831 12.1248L5.70831 12.1248L5.70831 12.1248L5.70831 12.1248L5.70831 12.1248L5.70831 12.1248L5.70831 12.1248L5.70831 12.1248L5.70831 12.1248L5.70831 12.1247L5.70831 12.1247L5.70831 12.1247L5.70831 12.1247L5.70831 12.1247L5.70831 12.1247L5.70831 12.1247L5.70831 12.1247L5.70831 12.1247L5.70831 12.1247L5.70831 12.1247L5.70831 12.1247L5.70831 12.1247L5.70831 12.1247L5.70831 12.1247L5.70831 12.1247L5.70831 12.1246L5.70831 12.1246L5.70831 12.1246L5.70831 12.1246L5.70831 12.1246L5.70831 12.1246L5.70831 12.1246L5.70831 12.1246L5.70831 12.1246L5.70831 12.1246L5.70831 12.1246L5.70831 12.1246L5.70831 12.1246L5.70831 12.1246L5.70831 12.1245L5.70831 12.1245L5.70831 12.1245L5.70831 12.1245L5.70831 12.1245L5.70831 12.1245L5.70831 12.1245L5.70831 12.1245L5.70831 12.1245L5.70831 12.1245L5.70831 12.1245L5.70831 12.1245L5.70831 12.1244L5.70831 12.1244L5.70831 12.1244L5.70831 12.1244L5.70831 12.1244L5.70831 12.1244L5.70831 12.1244L5.70831 12.1244L5.70831 12.1244L5.70831 12.1244L5.70831 12.1244L5.70831 12.1243L5.70831 12.1243L5.70831 12.1243L5.70831 12.1243L5.70831 12.1243L5.70831 12.1243L5.70831 12.1243L5.70831 12.1243L5.70831 12.1243L5.70831 12.1243L5.70831 12.1242L5.70831 12.1242L5.70831 12.1242L5.70831 12.1242L5.70831 12.1242L5.70831 12.1242L5.70831 12.1242L5.70831 12.1242L5.70831 12.1242L5.70831 12.1241L5.70831 12.1241L5.70831 12.1241L5.70831 12.1241L5.70831 12.1241L5.70831 12.1241L5.70831 12.1241L5.70831 12.1241L5.70831 12.1241L5.70831 12.124L5.70831 12.124L5.70831 12.124L5.70831 12.124L5.70831 12.124L5.70831 12.124L5.70831 12.124L5.70831 12.124L5.70831 12.1239L5.70831 12.1239L5.70831 12.1239L5.70831 12.1239L5.70831 12.1239L5.70831 12.1239L5.70831 12.1239L5.70831 12.1238L5.70831 12.1238L5.70831 12.1238L5.70831 12.1238L5.70831 12.1238L5.70831 12.1238L5.70831 12.1238L5.70831 12.1237L5.70831 12.1237L5.70831 12.1237L5.70831 12.1237L5.70831 12.1237L5.70831 12.1237L5.70831 12.1237L5.70831 12.1236L5.70831 12.1236L5.70831 12.1236L5.70831 12.1236L5.70831 12.1236L5.70831 12.1236L5.70831 12.1236L5.70831 12.1235L5.70831 12.1235L5.70831 12.1235L5.70831 12.1235L5.70831 12.1235L5.70831 12.1235L5.70831 12.1234L5.70831 12.1234L5.70831 12.1234L5.70831 12.1234L5.70831 12.1234L5.70831 12.1234L5.70831 12.1233L5.70831 12.1233L5.70831 12.1233L5.70831 12.1233L5.70831 12.1233L5.70831 12.1232L5.70831 12.1232L5.70831 12.1232L5.70831 12.1232L5.70831 12.1232L5.70831 12.1232L5.70831 12.1231L5.70831 12.1231L5.70831 12.1231L5.70831 12.1231L5.70831 12.1231L5.70831 12.123L5.70831 12.123L5.70831 12.123L5.70831 12.123L5.70831 12.123L5.70831 12.1229L5.70831 12.1229L5.70831 12.1229L5.70831 12.1229L5.70831 12.1229L5.70831 12.1228L5.70831 12.1228L5.70831 12.1228L5.70831 12.1228L5.70831 12.1228L5.70831 12.1227L5.70831 12.1227L5.70831 12.1227L5.70831 12.1227L5.70831 12.1227L5.70831 12.1226L5.70831 12.1226L5.70831 12.1226L5.70831 12.1226L5.70831 12.1226L5.70831 12.1225L5.70831 12.1225L5.70831 12.1225L5.70831 12.1225L5.70831 12.1224L5.70831 12.1224L5.70831 12.1224L5.70831 12.1224L5.70831 12.1224L5.70831 12.1223L5.70831 12.1223L5.70831 12.1223L5.70831 12.1223L5.70831 12.1222L5.70831 12.1222L5.70831 12.1222L5.70831 12.1222L5.70831 12.1221L5.70831 12.1221L5.70831 12.1221L5.70831 12.1221L5.70831 12.122L5.70831 12.122L5.70831 12.122L5.70831 12.122L5.70831 12.1219L5.70831 12.1219L5.70831 12.1219L5.70831 12.1219L5.70831 12.1218L5.70831 12.1218L5.70831 12.1218L5.70831 12.1218L5.70831 12.1217L5.70831 12.1217L5.70831 12.1217L5.70831 12.1216L5.70831 12.1216L5.70831 12.1216L5.70831 12.1216L5.70831 12.1215L5.70831 12.1215L5.70831 12.1215L5.70831 12.1215L5.70831 12.1214L5.70831 12.1214L5.70831 12.1214L5.70831 12.1213L5.70831 12.1213L5.70831 12.1213L5.70831 12.1213L5.70831 12.1212L5.70831 12.1212L5.70831 12.1212L5.70831 12.1211L5.70831 12.1211L5.70831 12.1211L5.70831 12.121L5.70831 12.121L5.70831 12.121L5.70831 12.121L5.70831 12.1209L5.70831 12.1209L5.70831 12.1209L5.70831 12.1208L5.70831 12.1208L5.70831 12.1208L5.70831 12.1207L5.70831 12.1207L5.70831 12.1207L5.70831 12.1206L5.70831 12.1206L5.70831 12.1206L5.70831 12.1205L5.70831 12.1205L5.70831 12.1205L5.70831 12.1204L5.70831 12.1204L5.70831 12.1204L5.70831 12.1203L5.70831 12.1203L5.70831 12.1203L5.70831 12.1202L5.70831 12.1202L5.70831 12.1202L5.70831 12.1201L5.70831 12.1201L5.70831 12.1201L5.70831 12.12L5.70831 12.12L5.70831 12.12L5.70831 12.1199L5.70831 12.1199L5.70831 12.1199L5.70831 12.1198L5.70831 12.1198L5.70831 12.1198L5.70831 12.1197L5.70831 12.1197L5.70831 12.1196L5.70831 12.1196L5.70831 12.1196L5.70831 12.1195L5.70831 12.1195L5.70831 12.1195L5.70831 12.1194L5.70831 12.1194L5.70831 12.1193L5.70831 12.1193L5.70831 12.1193L5.70831 12.1192L5.70831 12.1192L5.70831 12.1192L5.70831 12.1191L5.70831 12.1191L5.70831 12.119L5.70831 12.119L5.70831 12.119L5.70831 12.1189L5.70831 12.1189L5.70831 12.1188L5.70831 12.1188L5.70831 12.1188L5.70831 12.1187L5.70831 12.1187L5.70831 12.1186L5.70831 12.1186L5.70831 12.1186L5.70831 12.1185L5.70831 12.1185L5.70831 12.1184L5.70831 12.1184L5.70831 12.1183L5.70831 12.1183L5.70831 12.1183L5.70831 12.1182L5.70831 12.1182L5.70831 12.1181L5.70831 12.1181L5.70831 12.118L5.70831 12.118L5.70831 12.118L5.70831 12.1179L5.70831 12.1179L5.70831 12.1178L5.70831 12.1178L5.70831 12.1177L5.70831 12.1177L5.70831 12.1176L5.70831 12.1176L5.70831 12.1176L5.70831 12.1175L5.70831 12.1175L5.70831 12.1174L5.70831 12.1174L5.70831 12.1173L5.70831 12.1173L5.70831 12.1172L5.70831 12.1172L5.70831 12.1171L5.70831 12.1171L5.70831 12.117L5.70831 12.117L5.70831 12.1169L5.70831 12.1169L5.70831 12.1168L5.70831 12.1168L5.70831 12.1167C5.70831 12.0533 5.76307 11.9984 5.82975 11.9999L5.82974 12L5.83665 12.0001L10.0033 12.0417L10.0033 12.0417L10.0083 12.0417C10.0651 12.0417 10.125 12.0925 10.125 12.1667C10.125 12.2316 10.0749 12.2909 9.99332 12.2917L5.82998 12.2501Z" fill="#292D32" stroke="#285FE9"/>
<path d="M8.45831 8.83325C8.45831 8.8634 8.44603 8.89468 8.42038 8.92032C8.39474 8.94597 8.36346 8.95825 8.33331 8.95825L5.83331 8.95825C5.80317 8.95825 5.77189 8.94597 5.74624 8.92032C5.7206 8.89468 5.70831 8.8634 5.70831 8.83325C5.70831 8.8031 5.7206 8.77182 5.74624 8.74618C5.77189 8.72054 5.80317 8.70825 5.83331 8.70825L8.33331 8.70825C8.36346 8.70825 8.39474 8.72054 8.42038 8.74618C8.44603 8.77182 8.45831 8.8031 8.45831 8.83325Z" fill="#292D32" stroke="#285FE9"/>
</svg>
