<svg width="32" height="32" viewBox="0 0 32 32" fill="none" xmlns="http://www.w3.org/2000/svg">
<path d="M21.6781 4.42107L21.6776 4.42122L9.63859 8.42091C9.63838 8.42098 9.63818 8.42105 9.63797 8.42111C7.64694 9.08703 6.19273 9.84585 5.24611 10.6285C4.29769 11.4127 3.91 12.1744 3.91 12.8584C3.91 13.5423 4.29754 14.303 5.24573 15.0854C6.19225 15.8665 7.64643 16.6229 9.63759 17.2855L21.6781 4.42107ZM21.6781 4.42107C24.3011 3.54674 26.1459 3.88329 27.1345 4.87336C28.1237 5.86393 28.4599 7.71255 27.5922 10.3355C27.5922 10.3358 27.5921 10.3361 27.592 10.3363L23.579 22.3618L23.5789 22.3622M21.6781 4.42107L23.5789 22.3622M23.5789 22.3622C22.9163 24.3533 22.1591 25.8076 21.377 26.7541M23.5789 22.3622L21.377 26.7541M21.377 26.7541C20.5937 27.7022 19.8317 28.0901 19.1467 28.0901M21.377 26.7541L19.1467 28.0901M19.1467 28.0901C18.4617 28.0901 17.6996 27.7022 16.9163 26.7541M19.1467 28.0901L16.9163 26.7541M16.9163 26.7541C16.1343 25.8076 15.3771 24.3535 14.7145 22.3625L16.9163 26.7541ZM13.2109 18.4722L9.63788 17.2856L14.7144 22.3622L13.5279 18.7891L13.4488 18.5512L13.2109 18.4722ZM17.2336 16.5669L17.2345 16.566L22.3002 11.4736C22.3005 11.4733 22.3008 11.473 22.3011 11.4727C22.3011 11.4727 22.3011 11.4727 22.3011 11.4727C22.8821 10.8907 22.8818 9.93479 22.3002 9.35317C21.7183 8.77124 20.7617 8.77124 20.1798 9.35317L20.1789 9.3541L15.1131 14.4465C15.113 14.4466 15.113 14.4466 15.1129 14.4467C14.5312 15.0287 14.5313 15.9851 15.1131 16.5669C15.4118 16.8657 15.7945 17.0067 16.1733 17.0067C16.5521 17.0067 16.9348 16.8657 17.2336 16.5669Z" fill="white" stroke="white"/>
</svg>
