<svg width="32" height="32" viewBox="0 0 32 32" fill="none" xmlns="http://www.w3.org/2000/svg">
<path d="M21.6781 4.42107L21.6776 4.42122L9.63856 8.42091C9.6384 8.42096 9.63824 8.42101 9.63809 8.42107C7.64698 9.087 6.19273 9.84583 5.24608 10.6285C4.29766 11.4127 3.90997 12.1744 3.90997 12.8584C3.90997 13.5423 4.29751 14.303 5.2457 15.0854C6.19222 15.8665 7.6464 16.6229 9.63756 17.2855L21.6781 4.42107ZM21.6781 4.42107C24.3011 3.54674 26.1458 3.88329 27.1345 4.87336C28.1237 5.86394 28.4599 7.71258 27.5922 10.3356C27.5921 10.3358 27.592 10.3361 27.5919 10.3363L23.579 22.3618L23.5789 22.3622M21.6781 4.42107L23.5789 22.3622M23.5789 22.3622C22.9163 24.3533 22.159 25.8076 21.377 26.7541M23.5789 22.3622L21.377 26.7541M21.377 26.7541C20.5937 27.7022 19.8316 28.0901 19.1466 28.0901M21.377 26.7541L19.1466 28.0901M19.1466 28.0901C18.4617 28.0901 17.6996 27.7022 16.9163 26.7541M19.1466 28.0901L16.9163 26.7541M16.9163 26.7541C16.1343 25.8076 15.3771 24.3535 14.7145 22.3625L16.9163 26.7541ZM13.2109 18.4722L9.63785 17.2856L14.7144 22.3622L13.5278 18.7891L13.4488 18.5512L13.2109 18.4722ZM17.2335 16.5669L17.2345 16.566L22.3002 11.4736C22.3003 11.4735 22.3003 11.4735 22.3004 11.4734C22.8821 10.8915 22.8821 9.93503 22.3002 9.35317C21.7183 8.77124 20.7617 8.77124 20.1798 9.35317L20.1788 9.3541L15.1131 14.4465C15.1129 14.4467 15.1127 14.4469 15.1124 14.4471C14.5312 15.0291 14.5314 15.9852 15.1131 16.5669C15.4118 16.8657 15.7945 17.0067 16.1733 17.0067C16.5521 17.0067 16.9348 16.8657 17.2335 16.5669Z" fill="white" stroke="white"/>
</svg>
