<svg width="26" height="26" viewBox="0 0 26 26" fill="none" xmlns="http://www.w3.org/2000/svg">
<path d="M18.6781 1.42107L18.6776 1.42122L6.63856 5.42091C6.6384 5.42096 6.63824 5.42101 6.63809 5.42107C4.64698 6.087 3.19273 6.84583 2.24608 7.62853C1.29766 8.41269 0.909973 9.17435 0.909973 9.85839C0.909973 10.5423 1.29751 11.303 2.2457 12.0854C3.19222 12.8665 4.6464 13.6229 6.63756 14.2855L18.6781 1.42107ZM18.6781 1.42107C21.3011 0.546735 23.1458 0.883289 24.1345 1.87336C25.1237 2.86394 25.4599 4.71258 24.5922 7.33557C24.5921 7.33582 24.592 7.33608 24.5919 7.33633L20.579 19.3618L20.5789 19.3622M18.6781 1.42107L20.5789 19.3622M20.5789 19.3622C19.9163 21.3533 19.159 22.8076 18.377 23.7541M20.5789 19.3622L18.377 23.7541M18.377 23.7541C17.5937 24.7022 16.8316 25.0901 16.1466 25.0901M18.377 23.7541L16.1466 25.0901M16.1466 25.0901C15.4617 25.0901 14.6996 24.7022 13.9163 23.7541M16.1466 25.0901L13.9163 23.7541M13.9163 23.7541C13.1343 22.8076 12.3771 21.3535 11.7145 19.3625L13.9163 23.7541ZM10.2109 15.4722L6.63785 14.2856L11.7144 19.3622L10.5278 15.7891L10.4488 15.5512L10.2109 15.4722ZM14.2335 13.5669L14.2345 13.566L19.3002 8.47361C19.3003 8.47354 19.3003 8.47347 19.3004 8.4734C19.8821 7.89145 19.8821 6.93503 19.3002 6.35317C18.7183 5.77124 17.7617 5.77124 17.1798 6.35317L17.1788 6.3541L12.1131 11.4465C12.1129 11.4467 12.1127 11.4469 12.1124 11.4471C11.5312 12.0291 11.5314 12.9852 12.1131 13.5669C12.4118 13.8657 12.7945 14.0067 13.1733 14.0067C13.5521 14.0067 13.9348 13.8657 14.2335 13.5669Z" fill="white" stroke="white"/>
</svg>
